# xmcd CD database file
#
# Track frame offsets:
#	150
#	18900
#	36375
#	56285
#	74824
#	332550
#
# Disc length: 4440 seconds
#
# Revision: 1
# Processed by: cddbd v1.5.1PL2 Copyright (c) Steve Scherf et al.
# Submitted via: CDex 1.51
#
DISCID=50115606
DTITLE=晴晴 - 太陽に焦がれて
DYEAR=0609
DGENRE=Pop
TTITLE0=太陽に焦がれて
TTITLE1=青空
TTITLE2=かすみ
TTITLE3=太陽に焦がれてsdgundam　edit
TTITLE4=？？？
TTITLE5=？？
EXTD=YEAR: 0609
EXTT0=
EXTT1=
EXTT2=
EXTT3=
EXTT4=
EXTT5=
PLAYORDER=
